<svg xmlns="http://www.w3.org/2000/svg" width="512" height="512"><g fill="none" fill-rule="evenodd"><path fill="#88A451" d="M371.704 432.028c-82.666 82.201-216.683 82.201-299.35 0-82.665-82.2-82.665-215.464 0-297.665 82.667-82.2 216.684-82.2 299.35 0 82.666 82.201 82.666 215.464 0 297.665"/><path fill="#CECECE" d="M371.703 134.362a212.452 212.452 0 0 1 21.02 24.322l18.971-18.864c12.56-12.49 12.56-32.733 0-45.223-12.56-12.49-32.919-12.49-45.48 0l-18.97 18.863a212.994 212.994 0 0 1 24.46 20.902"/><path fill="#010202" d="M411.695 94.596c-3.424-3.405-7.448-5.797-11.716-7.344.62 8.912-2.358 18.017-9.206 24.827l-18.97 18.864c-5.831-7.878-12.345-15.41-19.417-22.595l-5.14 5.112a213.687 213.687 0 0 1 24.459 20.902 213.144 213.144 0 0 1 21.02 24.32l18.97-18.862c12.561-12.49 12.561-32.734 0-45.224" opacity=".2"/><path fill="#F8E6C4" d="M333.13 393.672c-61.359 61.014-160.84 61.014-222.206 0-61.36-61.014-61.36-159.936 0-220.957 61.366-61.014 160.847-61.014 222.207 0 61.36 61.021 61.36 159.943 0 220.957"/><path fill="#FEFEFE" d="m222.029 192.669-41.114 90.53h82.227z"/><path fill="#EE3634" d="m222.029 373.722-41.114-90.53h82.227z"/><path fill="#010202" d="M371.703 134.362c-20.253-20.139-43.596-35.306-68.494-45.577 67.086 82.652 62.036 204.029-15.197 280.827-62.412 62.062-154.096 77.236-230.855 45.577a214.051 214.051 0 0 0 15.197 16.839c82.666 82.2 216.683 82.2 299.35 0 82.666-82.201 82.666-215.465 0-297.666" opacity=".2"/><path fill="#2E2E30" d="M345.933 300.474h22.255c-2.232 31.569-14.542 61.112-35.423 85.003l-15.727-15.639c-4.086-4.063-10.705-4.063-14.792 0a10.356 10.356 0 0 0 0 14.71l15.713 15.624c-24.66 21.27-54.748 32.997-85.47 35.168v-22.06c0-5.743-4.68-10.403-10.461-10.403-5.775 0-10.461 4.66-10.461 10.402v22.06c-30.722-2.163-60.81-13.89-85.47-35.167l15.713-15.624c4.087-4.057 4.087-10.646 0-14.71-4.087-4.063-10.706-4.063-14.792 0l-15.714 15.625c-21.39-24.522-33.19-54.44-35.373-84.989h22.192c5.775 0 10.462-4.66 10.462-10.402 0-5.742-4.687-10.403-10.462-10.403H75.931c2.183-30.549 13.976-60.466 35.373-84.995l15.714 15.624a10.466 10.466 0 0 0 7.4 3.052c2.677 0 5.348-1.02 7.392-3.052 4.087-4.064 4.087-10.652 0-14.709l-15.713-15.625c24.66-21.27 54.748-33.003 85.47-35.167v22.06c0 5.75 4.686 10.403 10.461 10.403 5.782 0 10.461-4.654 10.461-10.403v-22.06c30.729 2.17 60.81 13.898 85.47 35.167l-15.713 15.625a10.356 10.356 0 0 0 0 14.71 10.466 10.466 0 0 0 7.4 3.05c2.678 0 5.349-1.019 7.392-3.05l15.727-15.64c20.881 23.892 33.191 53.435 35.423 85.01h-22.255c-5.775 0-10.462 4.66-10.462 10.403 0 5.742 4.687 10.402 10.462 10.402M223.507 123.576c-.489-.07-.97-.146-1.479-.146-.502 0-.983.076-1.472.146-42.417.367-84.73 16.547-117.028 48.663S54.96 246.429 54.59 288.615c-.07.479-.147.957-.147 1.457 0 .5.077.978.147 1.463.37 42.179 16.64 84.247 48.938 116.363 32.284 32.102 74.576 48.282 116.98 48.656.502.076.997.153 1.52.153.53 0 1.032-.077 1.541-.153 42.397-.388 84.675-16.56 116.959-48.656 31.656-31.471 49.092-73.317 49.092-117.826 0-44.516-17.436-86.362-49.092-117.833-32.298-32.116-74.604-48.296-117.021-48.663"/><path fill="#2E2E30" d="m222.03 355.318-24.911-54.842h49.817l-24.905 54.842Zm0-130.496 24.906 54.849h-49.817l24.912-54.85Zm51.443 63.982a9.984 9.984 0 0 0-.258-1.269 10.728 10.728 0 0 0-.377-1.22c-.07-.174-.083-.354-.16-.52l-41.113-90.53a10.469 10.469 0 0 0-9.534-6.124c-4.115 0-7.84 2.4-9.534 6.123l-41.12 90.53c-.077.167-.091.347-.16.52-.154.403-.273.805-.377 1.221-.112.423-.203.84-.258 1.27a9.61 9.61 0 0 0-.063 1.268c0 .423.007.846.063 1.27.055.43.146.845.258 1.268.104.416.223.819.376 1.221.07.166.084.354.16.52l41.12 90.523a10.469 10.469 0 0 0 9.535 6.124c4.115 0 7.839-2.4 9.534-6.124l41.113-90.523c.077-.166.09-.354.16-.52.154-.402.272-.805.377-1.22.112-.424.202-.84.258-1.27.056-.423.063-.846.063-1.269 0-.43-.007-.846-.063-1.269Z"/><path fill="#2E2E30" d="M386.725 141.853a229.048 229.048 0 0 0-7.616-7.975h-.006a226.588 226.588 0 0 0-8.077-7.636c-1.102-.992-2.238-1.914-3.354-2.878-1.549-1.338-3.076-2.705-4.66-4.001l10.602-10.535c8.46-8.412 22.227-8.412 30.687 0 8.46 8.413 8.46 22.095 0 30.508l-10.601 10.54c-1.165-1.407-2.4-2.76-3.6-4.14-1.129-1.296-2.217-2.607-3.375-3.883M364.31 431.55c-78.447 78.005-206.11 78.005-284.557 0-78.454-78.012-78.454-204.951 0-282.963 39.223-39.003 90.756-58.504 142.275-58.504 42.076 0 84.145 13.017 119.518 39.016 3.466 2.56 6.842 5.257 10.162 8.045.85.714 1.701 1.443 2.545 2.178 3.445 2.989 6.828 6.054 10.057 9.265 3.25 3.239 6.354 6.623 9.373 10.063.712.804 1.41 1.615 2.1 2.427 2.901 3.419 5.726 6.893 8.369 10.465 57.928 78.24 51.317 189.25-19.842 260.008m30.122-391.58c10.566-10.513 24.612-16.297 39.558-16.297 14.939 0 28.985 5.784 39.551 16.297 10.573 10.507 16.39 24.474 16.39 39.336 0 14.855-5.824 28.822-16.39 39.335-11.556 11.485-27.409 17.088-43.345 16.006.879-3.412 1.38-6.948 1.38-10.562 0-11.325-4.428-21.963-12.483-29.966-8.048-8.01-18.747-12.414-30.136-12.414-3.64 0-7.197.493-10.629 1.374-1.102-15.854 4.548-31.61 16.104-43.109m39.607 115.732c20.093 0 39.683-7.823 54.295-22.351 14.52-14.44 22.52-33.635 22.52-54.045 0-20.417-8-39.613-22.52-54.045C473.82 10.823 454.515 2.868 433.99 2.868c-20.532 0-39.837 7.955-54.35 22.393-18.245 18.135-25.833 43.996-20.86 68.893l-12.743 12.677C259.703 49.021 141.26 58.008 64.96 133.878c-86.613 86.126-86.613 226.255 0 312.381 43.304 43.06 100.186 64.586 157.068 64.586 56.89 0 113.771-21.526 157.075-64.586 76.305-75.876 85.344-193.647 27.206-279.502l12.644-12.574c5.015 1 10.064 1.52 15.086 1.52"/></g></svg>